<?xml version="1.0" standalone="no"?>
<!DOCTYPE svg PUBLIC "-//W3C//DTD SVG 20010904//EN"
 "http://www.w3.org/TR/2001/REC-SVG-20010904/DTD/svg10.dtd">
<svg version="1.0" xmlns="http://www.w3.org/2000/svg"
 width="2811.000000pt" height="1541.000000pt" viewBox="0 0 2811.000000 1541.000000"
 preserveAspectRatio="xMidYMid meet">

<g transform="translate(0.000000,1541.000000) scale(0.100000,-0.100000)"
fill="#000000" stroke="none">
<path d="M5104 13999 c-65 -19 -53 29 -185 -759 -77 -461 -81 -490 -123 -925
-57 -568 -63 -641 -123 -1350 -53 -632 -56 -692 -60 -1065 -5 -424 -1 -478 41
-523 28 -30 79 -42 140 -33 86 13 80 -16 87 428 4 231 13 459 23 553 8 88 29
367 46 620 17 253 35 496 40 540 6 44 43 379 84 745 67 592 101 842 191 1400
37 230 31 289 -36 341 -40 32 -81 41 -125 28z"/>
<path d="M10037 13748 c-36 -48 -52 -83 -85 -188 -37 -117 -67 -247 -83 -361
l-12 -87 -76 -20 c-42 -12 -137 -35 -211 -52 -74 -18 -335 -85 -580 -150 -245
-65 -492 -130 -550 -145 -119 -30 -170 -58 -193 -108 -15 -32 -16 -39 -2 -78
19 -53 68 -106 105 -114 40 -9 251 37 540 117 466 128 544 149 670 178 69 16
153 32 188 36 l62 7 -5 -29 c-20 -107 -57 -438 -106 -929 -94 -958 -83 -869
-117 -912 -16 -21 -78 -128 -137 -238 -174 -323 -305 -505 -397 -548 -89 -42
-191 -7 -246 84 -44 72 -63 139 -123 428 -78 377 -109 439 -242 480 -75 23
-111 18 -184 -25 -74 -43 -132 -108 -235 -264 -122 -184 -225 -378 -272 -514
-6 -17 -8 -18 -24 -2 -30 26 -40 96 -58 398 -15 264 -16 295 -1 397 9 60 30
149 47 198 44 124 45 134 20 182 -39 77 -159 105 -229 54 -40 -31 -59 -71 -82
-179 -28 -131 -35 -345 -20 -659 l12 -244 -52 -88 c-162 -272 -229 -361 -320
-428 -75 -55 -136 -73 -198 -56 -92 24 -138 102 -195 330 -46 182 -59 318 -46
481 25 322 40 471 54 535 8 39 20 95 27 125 16 72 8 100 -44 154 -34 36 -51
45 -90 51 -31 5 -58 3 -78 -6 -30 -12 -111 -109 -124 -148 -5 -16 -22 -19
-133 -24 -257 -13 -378 -70 -531 -251 -199 -236 -326 -511 -382 -831 -36 -203
-25 -411 28 -524 26 -55 95 -118 145 -133 67 -20 205 -17 251 6 75 37 100 71
378 501 103 159 191 291 196 292 4 2 19 -45 32 -104 31 -143 84 -317 120 -395
61 -133 155 -233 267 -285 114 -53 323 -42 424 22 63 40 177 152 250 246 l67
87 21 -107 c31 -152 39 -177 73 -216 36 -41 106 -65 187 -65 51 0 58 3 92 39
32 33 46 68 112 267 119 360 223 582 322 691 77 84 89 75 125 -94 28 -130 84
-293 134 -387 60 -114 175 -229 282 -282 78 -38 81 -39 190 -39 127 0 152 10
290 112 97 72 151 132 218 241 27 45 51 81 52 80 2 -2 -1 -111 -5 -243 -4
-131 -4 -269 1 -307 10 -83 45 -221 66 -262 61 -121 196 -145 238 -42 10 25
10 50 -1 131 -16 120 -18 554 -4 770 19 274 105 1347 136 1680 39 424 82 788
100 847 5 18 59 36 294 97 201 52 457 102 980 192 425 73 425 73 458 105 28
28 32 39 32 84 0 68 -26 105 -98 137 -40 19 -64 24 -95 20 -67 -9 -823 -164
-1062 -218 -279 -63 -466 -101 -471 -96 -7 7 42 167 87 284 68 178 55 274 -45
322 -63 31 -100 28 -129 -11z m-3817 -2647 c0 -5 -21 -58 -46 -118 -159 -374
-413 -823 -537 -950 -28 -29 -55 -53 -59 -53 -13 0 -9 184 6 262 49 258 248
647 387 760 84 68 249 133 249 99z"/>
<path d="M3035 11561 c-55 -24 -71 -69 -109 -321 -132 -860 -211 -2156 -186
-3042 19 -678 66 -1193 150 -1659 43 -242 62 -283 144 -314 89 -34 166 8 166
89 0 23 -11 100 -25 171 -53 278 -95 604 -119 935 -9 113 -18 232 -21 265 -23
252 -23 1321 1 1726 l7 116 126 6 c531 26 910 265 1142 723 103 202 149 391
149 603 -1 364 -159 610 -421 652 -140 23 -306 -30 -479 -152 -90 -63 -233
-204 -318 -312 -75 -94 -74 -97 -30 149 35 201 37 237 14 282 -31 60 -137 106
-191 83z m1066 -342 c102 -102 105 -446 8 -688 -174 -430 -519 -690 -953 -718
l-98 -6 6 59 c3 32 13 154 23 271 l17 211 32 7 c38 7 57 30 102 125 131 277
421 608 622 710 105 54 204 66 241 29z"/>
<path d="M3710 8862 c-19 -9 -43 -33 -55 -52 l-20 -35 0 -3305 0 -3305 23 -36
c38 -62 52 -64 392 -64 340 0 351 2 387 68 17 30 18 111 23 1277 4 986 8 1250
18 1267 28 50 49 53 366 53 l296 0 15 -36 c8 -20 78 -201 156 -402 77 -202
163 -423 190 -492 26 -69 163 -424 304 -790 355 -922 332 -865 371 -899 18
-17 50 -35 71 -40 23 -7 162 -11 346 -11 334 0 351 2 375 55 24 52 21 61 -121
420 -149 378 -251 635 -353 895 -118 298 -228 578 -399 1010 -206 521 -189
473 -169 485 358 207 603 551 713 1003 59 240 66 337 66 877 0 418 -3 510 -18
623 -60 441 -214 780 -466 1032 -229 229 -514 366 -850 409 -54 7 -358 11
-855 11 -714 0 -774 -1 -806 -18z m1566 -733 c119 -31 226 -91 317 -178 135
-129 214 -284 264 -518 l27 -128 1 -475 c0 -340 -4 -495 -13 -545 -68 -377
-207 -596 -458 -718 -138 -68 -171 -72 -541 -72 -321 0 -332 1 -360 21 -15 11
-33 36 -40 55 -16 46 -18 2445 -2 2502 7 26 21 44 42 57 30 19 53 20 358 20
297 0 332 -2 405 -21z"/>
<path d="M7430 8862 c-19 -9 -45 -32 -57 -51 l-23 -34 2 -3313 3 -3313 21 -28
c46 -62 -31 -58 1236 -58 l1157 0 28 21 c15 12 37 36 48 55 19 32 20 52 20
284 0 232 -1 252 -20 284 -11 19 -33 43 -48 55 -28 21 -35 21 -785 26 -589 4
-762 8 -779 18 -13 7 -31 27 -40 45 -17 30 -18 102 -18 1154 l0 1122 21 28
c45 60 11 58 824 63 727 5 746 5 780 25 62 36 70 81 67 355 -2 267 -7 287 -82
325 -39 19 -65 20 -792 25 l-753 5 -27 27 c-19 19 -29 42 -34 80 -10 69 -10
1907 0 1976 5 38 15 61 34 80 l27 27 758 5 c739 5 758 5 792 25 70 42 75 61
77 325 3 286 -4 321 -77 358 l-44 22 -1141 0 c-1065 0 -1142 -1 -1175 -18z"/>
<path d="M10343 8859 c-30 -15 -48 -33 -62 -63 -21 -42 -21 -52 -21 -1312 0
-1226 1 -1270 19 -1311 14 -30 32 -48 63 -65 l43 -23 3660 0 3660 0 43 23 c32
17 49 35 63 67 19 42 19 78 17 1323 -3 1276 -3 1281 -24 1308 -11 15 -33 37
-48 48 -26 20 -43 21 -314 24 -282 3 -288 2 -331 -20 -31 -16 -51 -36 -65 -63
-21 -39 -21 -57 -26 -870 -4 -681 -7 -835 -19 -857 -31 -61 41 -58 -1328 -58
-970 0 -1253 3 -1272 13 -13 6 -34 25 -45 40 -20 27 -21 44 -26 310 -5 261 -7
285 -26 317 -28 48 -75 77 -137 85 -29 4 -158 5 -287 3 -218 -3 -238 -5 -275
-25 -77 -41 -79 -51 -85 -368 -6 -311 -9 -327 -70 -357 -33 -17 -109 -18
-1158 -18 -1211 0 -1173 -2 -1204 52 -10 18 -14 188 -18 853 l-5 830 -23 47
c-17 35 -34 52 -66 67 -40 20 -60 21 -317 21 -257 0 -277 -1 -316 -21z"/>
<path d="M18320 8862 c-19 -9 -45 -32 -57 -51 l-23 -34 0 -3307 0 -3307 23
-34 c46 -68 -34 -64 1197 -67 613 -2 1134 0 1158 3 62 9 108 52 121 116 14 64
14 429 0 489 -12 54 -50 97 -98 110 -22 6 -312 10 -754 10 -773 0 -769 0 -799
52 -11 19 -14 543 -18 2973 l-5 2950 -24 42 c-40 70 -56 73 -394 73 -258 0
-296 -2 -327 -18z"/>
<path d="M21100 8864 c-19 -8 -43 -26 -53 -40 -29 -39 -39 -150 -35 -359 5
-216 13 -248 77 -287 l36 -23 999 -3 c706 -2 1004 -6 1013 -14 7 -6 13 -25 13
-43 0 -18 -109 -305 -261 -686 -144 -360 -397 -996 -564 -1414 -167 -418 -513
-1286 -770 -1930 -257 -643 -483 -1217 -503 -1275 l-36 -105 -1 -245 c0 -260
5 -298 48 -338 12 -11 40 -25 62 -31 53 -14 2744 -15 2796 -1 48 13 86 56 98
110 14 58 14 411 1 481 -12 63 -47 104 -99 119 -23 6 -398 10 -1007 10 -928 0
-972 1 -987 18 -26 28 -21 58 32 192 27 69 93 235 146 370 53 135 125 317 160
405 132 336 217 551 340 860 70 176 151 381 180 455 29 74 101 257 160 405 59
149 141 356 182 460 41 105 137 348 213 540 153 384 357 900 455 1150 35 88
97 246 139 352 47 119 80 219 87 263 6 42 9 160 7 288 -4 256 -11 281 -80 312
-42 19 -77 20 -1428 19 -1204 0 -1390 -2 -1420 -15z"/>
<path d="M15415 5634 c-467 -34 -822 -140 -1105 -329 -164 -110 -348 -321
-421 -482 -13 -29 -26 -53 -29 -53 -3 0 -25 31 -50 68 -25 36 -94 116 -155
177 -272 273 -596 426 -1030 487 -120 17 -645 17 -785 0 -270 -33 -489 -95
-697 -198 -493 -243 -790 -676 -867 -1264 -15 -109 -16 -235 -14 -1000 l3
-875 23 -33 c13 -18 38 -40 55 -50 30 -16 238 -17 3702 -17 3666 0 3670 0
3705 20 21 12 44 39 58 65 l22 44 0 896 c0 915 -3 1001 -41 1190 -105 523
-395 914 -844 1137 -211 105 -413 164 -685 199 -109 14 -719 27 -845 18z m720
-927 c469 -77 746 -302 852 -693 l27 -99 1 -427 c0 -418 0 -427 -21 -455 -40
-54 -13 -53 -1364 -51 -1390 3 -1289 -2 -1324 73 -16 32 -17 76 -13 443 4 444
7 476 68 632 122 318 401 516 809 575 157 22 177 23 540 20 237 -2 362 -8 425
-18z m-3480 -111 c305 -54 527 -182 662 -382 53 -79 75 -124 106 -219 47 -145
52 -196 52 -565 0 -376 -1 -382 -58 -424 l-28 -21 -1112 0 c-1056 0 -1114 1
-1145 18 -63 34 -64 46 -60 471 4 352 6 387 26 459 110 400 415 630 897 677
139 13 554 4 660 -14z"/>
<path d="M24541 2800 c-104 -38 -174 -102 -220 -200 -23 -48 -26 -68 -26 -160
0 -87 4 -113 22 -153 109 -235 414 -302 603 -131 202 182 157 506 -87 626 -86
42 -207 50 -292 18z m267 -69 c65 -33 118 -87 149 -149 24 -49 28 -69 28 -142
0 -74 -4 -92 -30 -144 -31 -61 -83 -113 -150 -149 -60 -32 -211 -32 -277 2
-203 100 -246 368 -83 525 66 65 129 87 235 83 64 -3 96 -9 128 -26z"/>
<path d="M24550 2439 l0 -210 33 3 32 3 3 78 c3 77 3 77 31 77 25 0 31 -8 65
-80 38 -80 39 -80 77 -80 22 0 39 3 39 6 0 3 -19 41 -42 85 -39 73 -41 81 -25
90 42 25 62 126 33 177 -26 47 -64 62 -158 62 l-88 0 0 -211z m170 131 c47
-47 11 -120 -60 -120 l-40 0 0 70 0 70 40 0 c27 0 47 -7 60 -20z"/>
</g>
</svg>
